<svg width="273" height="48" fill="none" xmlns="http://www.w3.org/2000/svg"><path fill="#BBB96C" d="M0 0h137v48H0z"/><path d="M34.482 22.078c0-1.055-.114-1.89-.343-2.505-.228-.615-.606-1.08-1.134-1.397-.527-.317-1.221-.519-2.083-.607-.861-.088-1.924-.131-3.19-.131h-6.776a32.25 32.25 0 0 0-2.848.105c-.765.062-1.398.193-1.899.396-.5.202-.887.492-1.16.87-.272.377-.47.878-.593 1.502-.123.625-.193 1.394-.21 2.308-.019.905-.027 1.99-.027 3.256 0 1.266.008 2.355.026 3.27.027.905.101 1.67.224 2.294.123.623.317 1.124.58 1.502.273.378.66.668 1.16.87.501.203 1.134.339 1.899.41a36.84 36.84 0 0 0 2.848.092h6.79c.984 0 1.832-.027 2.544-.08.712-.052 1.318-.149 1.819-.29.5-.14.905-.334 1.213-.58.307-.246.545-.553.712-.923.175-.377.294-.826.356-1.344.061-.528.092-1.143.092-1.846v-1.266H24.33v-2.109h12.682v3.375c0 .844-.053 1.608-.158 2.294a6.049 6.049 0 0 1-.567 1.82c-.264.527-.62.984-1.068 1.37-.448.387-1.015.708-1.7.963-.686.246-1.503.426-2.453.54-.949.123-2.056.185-3.322.185h-6.79c-1.546 0-2.851-.097-3.915-.29-1.055-.185-1.925-.466-2.61-.844-.686-.387-1.218-.87-1.595-1.45-.37-.58-.642-1.261-.818-2.044a14.625 14.625 0 0 1-.29-2.65c-.026-.984-.04-2.074-.04-3.269 0-1.195.014-2.285.04-3.27.026-.984.123-1.867.29-2.65.176-.782.448-1.463.818-2.043.377-.58.91-1.059 1.595-1.437.685-.387 1.555-.672 2.61-.857 1.064-.193 2.369-.29 3.916-.29h6.776c1.266 0 2.373.062 3.322.185.95.114 1.767.294 2.452.54.686.238 1.253.54 1.701.91.457.369.817.804 1.081 1.305.273.501.462 1.068.567 1.7.105.634.158 1.337.158 2.11h-2.531ZM65.663 36h-2.531v-3.797c0-.615-.013-1.143-.04-1.582-.017-.448-.092-.83-.224-1.147a1.65 1.65 0 0 0-.593-.765c-.272-.193-.66-.342-1.16-.448-.501-.105-1.138-.176-1.912-.21a50.722 50.722 0 0 0-2.834-.067H44.99V36h-2.53V15.75h14.33c1.547 0 2.847.057 3.902.171 1.064.106 1.938.268 2.624.488.694.22 1.226.492 1.595.818.378.325.65.707.817 1.146.176.44.277.932.303 1.477.035.545.053 1.147.053 1.806 0 .844-.061 1.587-.184 2.228-.115.633-.313 1.174-.594 1.622a3.221 3.221 0 0 1-1.12 1.08c-.466.265-1.05.45-1.754.555.703.105 1.266.29 1.688.553.422.264.747.607.975 1.029.229.422.378.922.449 1.503.079.58.118 1.239.118 1.977V36ZM44.991 25.875h11.8c1.125 0 2.07-.018 2.834-.053.774-.044 1.41-.118 1.912-.224.5-.105.888-.255 1.16-.448a1.65 1.65 0 0 0 .593-.765c.132-.316.207-.694.224-1.134.027-.448.04-.98.04-1.595 0-.571-.013-1.063-.04-1.476-.017-.413-.092-.76-.224-1.042a1.463 1.463 0 0 0-.593-.672c-.273-.167-.66-.295-1.16-.383-.501-.096-1.138-.158-1.912-.184-.764-.026-1.71-.04-2.834-.04h-11.8v8.016ZM95.157 15.75v10.125a90.29 90.29 0 0 1-.053 3.27c-.026.984-.127 1.867-.303 2.65-.167.782-.435 1.463-.804 2.043-.37.58-.897 1.063-1.582 1.45-.686.378-1.56.66-2.624.844-1.054.193-2.355.29-3.902.29h-5.933c-1.547 0-2.852-.097-3.915-.29-1.055-.185-1.925-.466-2.61-.844-.686-.387-1.218-.87-1.596-1.45-.369-.58-.641-1.261-.817-2.044a14.625 14.625 0 0 1-.29-2.65c-.026-.984-.04-2.074-.04-3.269V15.75h2.532v10.125c0 1.266.008 2.355.026 3.27.026.905.101 1.67.224 2.294.123.623.316 1.124.58 1.502.273.378.66.668 1.16.87.501.203 1.134.339 1.899.41a36.84 36.84 0 0 0 2.847.092h5.933c1.116 0 2.061-.031 2.835-.093.773-.07 1.406-.206 1.898-.408.5-.203.888-.493 1.16-.87.273-.379.47-.88.593-1.503.132-.625.207-1.39.224-2.294.018-.915.027-2.004.027-3.27l-.013-10.125h2.544Zm26.541 0h2.531V36h-2.531v-9.281h-18.563V36h-2.531V15.75h2.531v8.86h18.563v-8.86Z" fill="#556C40"/><path d="M34.482 22.078h-1.154v1.154h1.154v-1.154Zm-.343-2.505 1.082-.401-1.082.401Zm-16.031-2.03.093 1.15h.011l-.104-1.15Zm-3.863 5.076 1.154.022-1.154-.022Zm0 6.526-1.154.022v.011l1.154-.034Zm.804 3.796-.946.66.005.008.005.007.936-.675Zm3.059 1.28-.106 1.148h.007l.007.002.092-1.15Zm15.926-1.78-1.047-.487-.005.01 1.052.476Zm.356-1.345 1.145.136v-.003l-1.145-.133Zm.092-3.112h1.154V26.83h-1.154v1.154Zm-10.151 0h-1.154v1.154h1.154v-1.154Zm0-2.109v-1.154h-1.154v1.154h1.154Zm12.682 0h1.154v-1.154h-1.154v1.154Zm-.158 5.669 1.14.178v-.003l-1.14-.175Zm-.567 1.82-1.029-.523-.003.006 1.032.516Zm-2.768 2.333.39 1.086.012-.005-.402-1.081Zm-2.453.54-.137-1.145-.011.001.148 1.144Zm-14.027-.105.207-1.136h-.008l-.199 1.136Zm-2.61-.844-.567 1.005.01.006.557-1.01Zm-1.595-1.45-.974.62.007.01.966-.63Zm-.818-2.044-1.128.241.002.012 1.126-.253Zm0-11.838-1.126-.253-.002.012 1.128.24Zm.818-2.044-.967-.63-.007.01.973.62Zm1.595-1.437.557 1.01.01-.005-.567-1.005Zm2.61-.857.199 1.137.008-.002-.207-1.135Zm14.014-.105-.148 1.144.01.001.138-1.145Zm2.452.54-.39 1.086.013.005.377-1.09Zm1.701.91-.733.89.008.008.725-.898Zm1.081 1.305-1.021.537.004.008.003.006 1.014-.55Zm.725 3.81v1.154h1.154v-1.154h-1.154Zm-1.377 0c0-1.119-.119-2.109-.415-2.906l-2.163.803c.16.432.27 1.113.27 2.103h2.308Zm-.415-2.906c-.313-.844-.854-1.525-1.622-1.986l-1.187 1.98c.287.171.502.422.645.809l2.164-.803Zm-1.622-1.986c-.72-.431-1.594-.666-2.56-.765l-.234 2.296c.757.078 1.271.247 1.607.448l1.187-1.979Zm-2.56-.765c-.913-.093-2.018-.137-3.307-.137v2.307c1.242 0 2.264.044 3.073.126l.235-2.296Zm-3.307-.137h-6.776v2.307h6.776v-2.307Zm-6.776 0a33.38 33.38 0 0 0-2.953.11l.21 2.298c.726-.066 1.639-.1 2.743-.1v-2.308Zm-2.94.109c-.837.067-1.594.215-2.238.475l.863 2.14c.358-.144.867-.26 1.56-.315l-.186-2.3Zm-2.238.475c-.67.27-1.246.684-1.665 1.266l1.872 1.35c.126-.175.324-.342.656-.475l-.863-2.14Zm-1.665 1.266c-.398.552-.645 1.224-.79 1.954l2.265.447c.102-.518.25-.848.397-1.052l-1.872-1.35Zm-.79 1.954c-.14.712-.213 1.553-.232 2.508l2.308.045c.017-.873.084-1.57.19-2.106l-2.265-.447Zm-.232 2.508a179.7 179.7 0 0 0-.026 3.279h2.308c0-1.26.008-2.338.026-3.234l-2.308-.045Zm-.026 3.279c0 1.27.009 2.368.026 3.292l2.308-.045c-.018-.904-.026-1.986-.026-3.247h-2.308Zm.027 3.303c.027.945.106 1.777.245 2.484l2.264-.447c-.106-.541-.177-1.238-.203-2.104l-2.306.067Zm.245 2.484c.143.725.383 1.39.766 1.94l1.893-1.32c-.145-.208-.292-.544-.395-1.067l-2.264.447Zm.776 1.954c.42.582.995.995 1.665 1.266l.863-2.14c-.332-.134-.53-.3-.656-.475l-1.872 1.35Zm1.665 1.266c.639.257 1.39.41 2.224.487l.212-2.298c-.696-.064-1.21-.183-1.573-.33l-.863 2.14Zm2.238.489a37.98 37.98 0 0 0 2.94.095V33.16c-1.107 0-2.024-.03-2.757-.09l-.183 2.301Zm2.94.095h6.79V33.16h-6.79v2.307Zm6.79 0c1.002 0 1.88-.026 2.629-.082l-.17-2.301a34.01 34.01 0 0 1-2.46.076v2.307Zm2.629-.082c.762-.056 1.45-.162 2.046-.33l-.624-2.222c-.405.114-.931.202-1.593.25l.17 2.302Zm2.046-.33c.604-.17 1.161-.421 1.622-.79L32.6 32.462c-.155.124-.407.259-.804.37l.624 2.222Zm1.622-.79a3.615 3.615 0 0 0 1.042-1.348l-2.103-.951a1.31 1.31 0 0 1-.381.497l1.442 1.802Zm1.037-1.337a5.564 5.564 0 0 0 .456-1.695l-2.292-.272c-.05.426-.144.75-.257.994l2.093.973Zm.456-1.698c.068-.583.1-1.245.1-1.979h-2.308c0 .672-.03 1.24-.085 1.712l2.293.267Zm.1-1.979v-1.266h-2.308v1.266h2.308Zm-1.154-2.42H24.33v2.308h10.15V26.83Zm-8.997 1.154v-2.109h-2.308v2.11h2.308Zm-1.154-.955h12.682V24.72H24.331v2.308Zm11.528-1.154v3.375h2.308v-3.375H35.86Zm0 3.375c0 .797-.05 1.502-.145 2.119l2.282.35a16.32 16.32 0 0 0 .171-2.469H35.86Zm-.144 2.116a4.896 4.896 0 0 1-.456 1.474l2.058 1.046a7.196 7.196 0 0 0 .678-2.164l-2.28-.356Zm-.459 1.481c-.195.39-.456.726-.79 1.014l1.508 1.747a5.538 5.538 0 0 0 1.346-1.729l-2.064-1.032Zm-.79 1.014c-.323.278-.763.536-1.349.754l.805 2.163c.785-.291 1.479-.675 2.052-1.17l-1.508-1.747Zm-1.336.75c-.584.21-1.312.374-2.2.48l.275 2.292c1.01-.122 1.917-.317 2.704-.6l-.78-2.172Zm-2.211.482c-.887.115-1.943.175-3.174.175v2.308c1.3 0 2.46-.063 3.47-.194l-.296-2.289Zm-3.174.175h-6.79v2.308h6.79v-2.308Zm-6.79 0c-1.504 0-2.735-.095-3.708-.272l-.413 2.271c1.153.21 2.532.309 4.122.309v-2.308Zm-3.716-.273c-.972-.17-1.71-.419-2.252-.717l-1.114 2.02c.83.458 1.83.771 2.968.97l.398-2.273Zm-2.242-.712c-.547-.308-.932-.67-1.196-1.075l-1.933 1.26c.492.755 1.17 1.36 1.995 1.825l1.134-2.01Zm-1.189-1.065c-.287-.45-.514-1.003-.665-1.677l-2.252.506c.2.892.518 1.7.97 2.41l1.947-1.239Zm-.662-1.665c-.15-.699-.24-1.51-.266-2.44l-2.306.062c.027 1.04.13 1.995.315 2.86l2.257-.481Zm-.266-2.44c-.026-.972-.039-2.05-.039-3.238h-2.307c0 1.203.013 2.304.04 3.3l2.306-.061Zm-.039-3.238c0-1.187.014-2.266.04-3.239l-2.307-.061c-.027.996-.04 2.097-.04 3.3h2.307Zm.04-3.239c.024-.929.115-1.74.265-2.44l-2.257-.481c-.185.865-.288 1.82-.315 2.86l2.306.061Zm.262-2.427c.151-.674.378-1.227.665-1.677l-1.947-1.24c-.452.71-.77 1.52-.97 2.41l2.252.507Zm.658-1.667c.262-.402.644-.758 1.186-1.056l-1.114-2.021c-.83.457-1.511 1.059-2.005 1.817l1.933 1.26Zm1.196-1.062c.538-.303 1.273-.556 2.242-.725l-.398-2.273c-1.14.2-2.146.518-2.978.988l1.134 2.01Zm2.25-.727c.973-.177 2.204-.271 3.709-.271v-2.308c-1.59 0-2.969.1-4.122.309l.413 2.27Zm3.709-.271h6.776v-2.308h-6.776v2.308Zm6.776 0c1.23 0 2.287.06 3.174.175l.297-2.289c-1.012-.13-2.17-.194-3.471-.194v2.308Zm3.184.176c.889.107 1.617.272 2.2.481l.78-2.172c-.788-.283-1.694-.478-2.704-.6l-.276 2.291Zm2.213.486c.587.203 1.025.446 1.345.71l1.467-1.782c-.577-.475-1.273-.838-2.057-1.11l-.755 2.182Zm1.353.717c.34.274.597.588.785.944l2.042-1.074a5.306 5.306 0 0 0-1.377-1.666l-1.45 1.796Zm.792.958c.204.375.356.818.443 1.34l2.276-.38a6.54 6.54 0 0 0-.691-2.062l-2.028 1.102Zm.443 1.34c.093.558.142 1.197.142 1.92h2.308c0-.825-.056-1.593-.174-2.3l-2.276.38Zm1.296.765h-2.531v2.308h2.531v-2.308ZM65.663 36v1.154h1.154V36h-1.154Zm-2.531 0h-1.154v1.154h1.154V36Zm-.04-5.379-1.153.045v.012l.002.012 1.151-.069Zm-.224-1.147-1.075.418.005.013.005.013 1.065-.444Zm-3.665-1.424-.066 1.152.014.001.052-1.153Zm-14.212-.066V26.83h-1.154v1.154h1.154Zm0 8.016v1.154h1.154V36h-1.154Zm-2.53 0h-1.155v1.154h1.154V36Zm0-20.25v-1.154h-1.155v1.154h1.154Zm18.232.171-.124 1.148h.01l.114-1.148Zm2.624.488-.353 1.099.004.001.349-1.1Zm1.595.818-.763.866.01.008.753-.874Zm.817 1.146-1.079.41.004.01.004.01 1.071-.43Zm.303 1.477-1.152.056v.018l1.152-.074Zm-.132 4.034-1.133-.217-.002.012 1.135.205Zm-1.713 2.703.568 1.004.007-.004.007-.004-.582-.996Zm-1.754.554L62.263 26v2.282l.17-1.141Zm3.112 3.085-1.146.138.001.009.001.008 1.144-.155ZM44.99 25.875h-1.154v1.154h1.154v-1.154Zm14.634-.053.053 1.153h.013l-.066-1.153Zm3.665-1.437-1.065-.444-.005.013-.005.013 1.075.418Zm.224-1.134-1.152-.067v.021l1.152.047Zm0-3.071-1.153.049.001.012v.012l1.152-.073Zm-.224-1.042-1.057.463.006.013.006.014 1.045-.49Zm-1.753-1.055-.219 1.134.01.001.01.002.199-1.136Zm-1.912-.184-.04 1.153.04-1.153Zm-14.634-.04v-1.154h-1.154v1.154h1.154Zm20.672 16.987h-2.531v2.308h2.531v-2.308ZM64.286 36v-3.797h-2.308V36h2.308Zm0-3.797c0-.63-.014-1.182-.042-1.651l-2.303.138c.024.41.037.913.037 1.513h2.308Zm-.04-1.627c-.022-.545-.114-1.07-.312-1.546l-2.13.888c.065.157.122.397.135.748l2.307-.09Zm-.302-1.52a2.803 2.803 0 0 0-1.001-1.288l-1.336 1.883c.086.06.143.132.186.241l2.15-.836Zm-1.001-1.288c-.452-.32-1.009-.514-1.59-.636l-.476 2.258c.42.089.637.194.73.26l1.336-1.881Zm-1.59-.636c-.585-.123-1.29-.198-2.097-.234l-.105 2.305c.74.034 1.309.1 1.726.187l.476-2.258Zm-2.084-.234a51.842 51.842 0 0 0-2.9-.067v2.307c1.112 0 2.033.022 2.768.064l.133-2.304Zm-2.9-.067H44.99v2.307h11.38V26.83Zm-12.532 1.153V36h2.308v-8.016h-2.308Zm1.154 6.862h-2.53v2.308h2.53v-2.308ZM43.614 36V15.75h-2.308V36h2.308ZM42.46 16.904h14.33v-2.308H42.46v2.308Zm14.33 0c1.523 0 2.78.056 3.779.165l.248-2.295c-1.11-.12-2.455-.178-4.026-.178v2.308Zm3.79.166c1.017.1 1.804.252 2.384.438l.705-2.198c-.79-.253-1.753-.427-2.862-.537l-.228 2.297Zm2.388.44c.609.192.976.402 1.181.582l1.525-1.731c-.533-.47-1.23-.805-2.01-1.052l-.696 2.2Zm1.191.591c.241.208.397.434.491.682l2.158-.82a3.974 3.974 0 0 0-1.144-1.611l-1.505 1.75Zm.499.701c.121.304.2.668.222 1.104l2.305-.112a5.694 5.694 0 0 0-.385-1.849l-2.142.857Zm.223 1.122c.033.516.05 1.093.05 1.732h2.308c0-.679-.018-1.306-.055-1.88l-2.303.148Zm.05 1.732c0 .79-.058 1.458-.164 2.01l2.267.436c.14-.73.205-1.549.205-2.446h-2.308Zm-.166 2.023c-.094.519-.247.914-.435 1.214l1.955 1.226c.374-.596.616-1.282.751-2.03l-2.271-.41Zm-.435 1.214a2.07 2.07 0 0 1-.726.698l1.165 1.992a4.376 4.376 0 0 0 1.516-1.464l-1.955-1.226Zm-.712.69c-.31.175-.75.326-1.356.417l.342 2.282c.8-.12 1.53-.339 2.151-.69l-1.137-2.01Zm-1.356 2.699c.609.091 1.004.239 1.247.39l1.223-1.956c-.6-.376-1.33-.597-2.128-.716l-.342 2.282Zm1.247.39c.26.163.443.36.573.6l2.029-1.099a3.889 3.889 0 0 0-1.379-1.457l-1.223 1.957Zm.573.6c.146.27.26.626.317 1.092l2.291-.277c-.084-.694-.268-1.34-.579-1.914l-2.03 1.1Zm.32 1.11c.07.517.107 1.122.107 1.821h2.308a15.9 15.9 0 0 0-.13-2.133l-2.286.311Zm.107 1.821V36h2.308v-3.797H64.51ZM44.991 27.03h11.8v-2.31h-11.8v2.308Zm11.8 0c1.135 0 2.099-.018 2.887-.054l-.106-2.305c-.74.034-1.667.051-2.781.051v2.308Zm2.9-.055c.805-.045 1.505-.125 2.084-.247l-.476-2.258c-.423.09-.998.16-1.74.201l.132 2.304Zm2.084-.247c.581-.122 1.138-.316 1.59-.636l-1.336-1.882c-.093.066-.31.172-.73.26l.476 2.258Zm1.59-.636c.46-.326.797-.764 1-1.288l-2.15-.836a.498.498 0 0 1-.186.242l1.336 1.882Zm.99-1.262c.197-.473.29-.992.312-1.531l-2.306-.093c-.013.34-.07.576-.136.736l2.13.888Zm.311-1.51a28.77 28.77 0 0 0 .042-1.663H62.4c0 .6-.013 1.109-.038 1.528l2.304.135Zm.042-1.663c0-.587-.014-1.105-.042-1.55l-2.303.147c.024.382.037.848.037 1.403h2.308Zm-.04-1.525c-.023-.518-.119-1.025-.333-1.483l-2.09.98c.05.105.103.293.117.6l2.305-.097Zm-.32-1.455a2.617 2.617 0 0 0-1.048-1.194l-1.206 1.968c.08.049.115.095.139.15l2.114-.924ZM63.3 17.482c-.448-.274-.994-.435-1.564-.535l-.399 2.273c.433.076.66.17.757.23l1.206-1.968Zm-1.545-.531c-.582-.113-1.284-.178-2.09-.205l-.08 2.306c.742.025 1.313.084 1.733.165l.437-2.266Zm-2.09-.205a85.635 85.635 0 0 0-2.874-.04v2.307c1.117 0 2.048.013 2.794.04l.08-2.307Zm-2.874-.04h-11.8v2.307h11.8v-2.308Zm-12.953 1.153v8.016h2.307v-8.016h-2.308Zm51.32-2.109h1.153v-1.154h-1.154v1.154Zm-.054 13.395-1.153-.042v.01l1.153.032Zm-.303 2.65-1.126-.254-.002.012 1.128.241Zm-2.386 3.493.557 1.01.01-.005-.567-1.005Zm-2.624.844-.197-1.137-.01.002.207 1.135Zm-13.75 0 .206-1.136h-.007l-.2 1.136Zm-2.61-.844-.567 1.005.01.006.556-1.01Zm-1.596-1.45-.973.62.007.01.966-.63Zm-.817-2.044-1.129.241.003.012 1.126-.253Zm-.33-16.044v-1.154h-1.154v1.154h1.154Zm2.532 0h1.154v-1.154H73.22v1.154Zm.026 13.395-1.154.022v.011l1.154-.034Zm.804 3.796-.946.66.005.008.005.007.936-.675Zm3.059 1.28-.106 1.148h.007l.007.002.092-1.15Zm11.615 0 .091 1.15.013-.002-.105-1.149Zm1.898-.41-.432-1.07-.007.003.439 1.068Zm1.753-2.372-1.129-.239-.001.008-.002.007 1.132.224Zm.224-2.294 1.154.022-1.154-.023Zm.027-3.27h1.154v-.002l-1.154.002Zm-.013-10.125v-1.154h-1.156l.002 1.155 1.154-.001Zm1.39 0v10.125h2.308V15.75h-2.308Zm0 10.125c0 1.184-.017 2.26-.052 3.228l2.306.083c.036-1 .054-2.105.054-3.311h-2.308Zm-.052 3.239c-.025.925-.12 1.732-.276 2.427l2.252.506c.195-.869.303-1.829.33-2.872l-2.306-.061Zm-.278 2.44c-.143.669-.365 1.218-.65 1.664l1.947 1.24c.454-.714.769-1.528.96-2.423l-2.257-.481Zm-.65 1.664c-.253.399-.63.758-1.175 1.065l1.134 2.01c.826-.466 1.504-1.074 1.988-1.836l-1.947-1.239Zm-1.165 1.06c-.54.297-1.282.547-2.264.717l.395 2.274c1.145-.199 2.152-.512 2.983-.97l-1.114-2.021Zm-2.275.719c-.963.176-2.19.271-3.694.271v2.308c1.589 0 2.964-.1 4.11-.31l-.416-2.27Zm-3.694.271h-5.933v2.308h5.933v-2.308Zm-5.933 0c-1.504 0-2.736-.095-3.709-.272l-.413 2.271c1.154.21 2.533.309 4.122.309v-2.308Zm-3.716-.273c-.972-.17-1.711-.419-2.252-.717l-1.115 2.02c.83.458 1.832.771 2.969.97l.398-2.273Zm-2.243-.712c-.546-.308-.931-.67-1.195-1.075l-1.934 1.26c.493.755 1.17 1.36 1.996 1.825l1.133-2.01Zm-1.188-1.065c-.287-.45-.514-1.003-.665-1.677l-2.252.506c.2.892.518 1.7.97 2.41l1.947-1.239Zm-.663-1.665c-.149-.699-.24-1.51-.265-2.44l-2.307.062c.028 1.04.13 1.995.315 2.86l2.257-.481Zm-.265-2.44c-.026-.972-.039-2.05-.039-3.238h-2.308c0 1.203.014 2.304.04 3.3l2.307-.061Zm-.039-3.238V15.75h-2.308v10.125h2.308Zm-1.154-8.971h2.532v-2.308h-2.532v2.308Zm1.378-1.154v10.125h2.308V15.75h-2.308Zm0 10.125c0 1.27.008 2.368.026 3.292l2.308-.045c-.018-.904-.026-1.986-.026-3.247h-2.308Zm.026 3.303c.028.945.107 1.777.246 2.484l2.264-.447c-.107-.541-.177-1.238-.203-2.104l-2.306.067Zm.246 2.484c.143.725.383 1.39.766 1.94l1.892-1.32c-.144-.208-.29-.544-.394-1.067l-2.264.447Zm.776 1.954c.42.582.994.995 1.664 1.266l.864-2.14c-.332-.134-.53-.3-.656-.475l-1.872 1.35Zm1.664 1.266c.64.257 1.391.41 2.225.487l.211-2.298c-.695-.064-1.209-.183-1.572-.33l-.864 2.14Zm2.24.489a37.98 37.98 0 0 0 2.938.095V33.16c-1.106 0-2.023-.03-2.756-.09l-.183 2.301Zm2.938.095h5.933V33.16h-5.933v2.307Zm5.933 0c1.135 0 2.112-.03 2.926-.096l-.183-2.3c-.733.058-1.645.089-2.743.089v2.307Zm2.939-.097c.84-.076 1.597-.23 2.232-.49l-.877-2.135c-.348.143-.858.263-1.564.327l.209 2.298Zm2.226-.487c.67-.27 1.245-.684 1.664-1.266l-1.872-1.35c-.126.175-.324.342-.656.475l.864 2.14Zm1.664-1.266c.398-.552.645-1.224.79-1.954l-2.265-.447c-.102.518-.25.848-.397 1.052l1.872 1.35Zm.786-1.939c.152-.718.23-1.56.25-2.51l-2.308-.045c-.017.86-.088 1.548-.2 2.078l2.258.477Zm.25-2.51c.017-.924.026-2.022.026-3.292h-2.308c0 1.26-.009 2.343-.026 3.247l2.307.045Zm.026-3.294-.014-10.125-2.307.004.013 10.124 2.308-.003Zm-1.167-8.97h2.544v-2.307h-2.544v2.308Zm29.085-1.153v-1.154h-1.154v1.154h1.154Zm2.531 0h1.154v-1.154h-1.154v1.154Zm0 20.25v1.154h1.154V36h-1.154Zm-2.531 0h-1.154v1.154h1.154V36Zm0-9.281h1.154v-1.154h-1.154v1.154Zm-18.563 0v-1.154h-1.154v1.154h1.154Zm0 9.281v1.154h1.154V36h-1.154Zm-2.531 0H99.45v1.154h1.154V36Zm0-20.25v-1.154H99.45v1.154h1.154Zm2.531 0h1.154v-1.154h-1.154v1.154Zm0 8.86h-1.154v1.153h1.154V24.61Zm18.563 0v1.153h1.154V24.61h-1.154Zm0-7.706h2.531v-2.308h-2.531v2.308Zm1.377-1.154V36h2.308V15.75h-2.308Zm1.154 19.096h-2.531v2.308h2.531v-2.308ZM122.852 36v-9.281h-2.308V36h2.308Zm-1.154-10.435h-18.563v2.308h18.563v-2.308Zm-19.717 1.154V36h2.308v-9.281h-2.308Zm1.154 8.127h-2.531v2.308h2.531v-2.308ZM101.758 36V15.75H99.45V36h2.308Zm-1.154-19.096h2.531v-2.308h-2.531v2.308Zm1.377-1.154v8.86h2.308v-8.86h-2.308Zm1.154 10.013h18.563v-2.308h-18.563v2.308Zm19.717-1.154V15.75h-2.308v8.86h2.308Z" fill="#456639"/><path fill="#476B45" d="M137 0h136v48H137z"/><path d="M169.359 31.36h-16.031L150.797 36h-2.953l11.812-20.25h3.375L174.844 36h-2.953l-2.532-4.64Zm-1.265-2.11-6.75-11.813-6.75 11.813h13.5Zm34.978-13.5v10.125a92.57 92.57 0 0 1-.053 3.27c-.026.984-.127 1.867-.303 2.65-.167.782-.435 1.463-.804 2.043-.369.58-.897 1.063-1.582 1.45-.686.378-1.56.66-2.624.844-1.054.193-2.355.29-3.902.29h-5.933c-1.547 0-2.852-.097-3.915-.29-1.055-.185-1.925-.466-2.611-.844-.685-.387-1.217-.87-1.595-1.45-.369-.58-.641-1.261-.817-2.044a14.598 14.598 0 0 1-.29-2.65c-.027-.984-.04-2.074-.04-3.269V15.75h2.531v10.125c0 1.266.009 2.355.027 3.27.026.905.101 1.67.224 2.294.123.623.316 1.124.58 1.502.272.378.659.668 1.16.87.501.203 1.134.339 1.899.41.773.06 1.722.092 2.847.092h5.933c1.116 0 2.061-.031 2.834-.093.774-.07 1.407-.206 1.899-.408.501-.203.887-.493 1.16-.87.272-.379.47-.88.593-1.503.132-.625.207-1.39.224-2.294.018-.915.027-2.004.027-3.27l-.013-10.125h2.544Zm27.384 0v2.11h-10.125V36H217.8V17.86h-10.125v-2.11h22.781Zm21.479-.422c1.546 0 2.847.097 3.902.29 1.063.185 1.938.47 2.623.857.686.378 1.213.857 1.582 1.437.37.58.638 1.261.805 2.044.175.782.277 1.665.303 2.65.035.984.053 2.074.053 3.269a92.57 92.57 0 0 1-.053 3.27 13.862 13.862 0 0 1-.303 2.65c-.167.782-.435 1.463-.805 2.043-.369.58-.896 1.063-1.582 1.45-.685.378-1.56.66-2.623.844-1.055.193-2.356.29-3.902.29h-7.621c-1.546 0-2.852-.097-3.915-.29-1.055-.185-1.925-.466-2.61-.844-.686-.387-1.218-.87-1.596-1.45-.369-.58-.641-1.261-.817-2.044a14.598 14.598 0 0 1-.29-2.65 124.41 124.41 0 0 1-.04-3.269c0-1.195.014-2.285.04-3.27.026-.984.123-1.867.29-2.65.176-.782.448-1.463.817-2.043.378-.58.91-1.059 1.596-1.437.685-.387 1.555-.672 2.61-.857 1.063-.193 2.369-.29 3.915-.29h7.621Zm0 18.985c1.116 0 2.056-.031 2.821-.093.773-.07 1.41-.206 1.911-.408.501-.203.888-.493 1.161-.87.272-.379.47-.88.593-1.503.123-.625.193-1.39.211-2.294.026-.915.039-2.004.039-3.27s-.013-2.351-.039-3.256c-.018-.914-.088-1.683-.211-2.308-.123-.623-.321-1.125-.593-1.502-.273-.378-.66-.668-1.161-.87-.492-.203-1.125-.334-1.898-.396a31.781 31.781 0 0 0-2.834-.105h-7.621c-1.125 0-2.074.035-2.847.105-.765.062-1.398.193-1.899.396-.501.202-.887.492-1.16.87-.272.377-.47.878-.593 1.502-.123.625-.193 1.394-.211 2.308-.018.905-.026 1.99-.026 3.256 0 1.266.008 2.355.026 3.27.026.905.101 1.67.224 2.294.123.623.317 1.124.58 1.502.273.378.659.668 1.16.87.501.203 1.134.339 1.899.41.773.06 1.722.092 2.847.092h7.621Z" fill="#BCBF7C"/><path d="m169.359 31.36.981-.535-.318-.582h-.663v1.116Zm-16.031 0v-1.117h-.663l-.317.582.98.534ZM150.797 36v1.117h.663l.317-.582-.98-.535Zm-2.953 0-.965-.563-.979 1.68h1.944V36Zm11.812-20.25v-1.117h-.641l-.323.554.964.563Zm3.375 0 .965-.563-.323-.554h-.642v1.117ZM174.844 36v1.117h1.944l-.98-1.68-.964.563Zm-2.953 0-.981.535.318.582h.663V36Zm-3.797-6.75v1.117h1.924l-.955-1.671-.969.554Zm-6.75-11.813.969-.553-.969-1.697-.97 1.697.97.553Zm-6.75 11.813-.97-.554-.954 1.67h1.924V29.25Zm14.765.993h-16.031v2.233h16.031v-2.233Zm-17.011.582-2.531 4.64 1.96 1.07 2.531-4.64-1.96-1.07Zm-1.551 4.058h-2.953v2.234h2.953v-2.234Zm-1.989 1.68 11.813-20.25-1.929-1.126-11.813 20.25 1.929 1.126Zm10.848-19.696h3.375v-2.234h-3.375v2.234Zm2.411-.554 11.812 20.25 1.929-1.126-11.812-20.25-1.929 1.126Zm12.777 18.57h-2.953v2.234h2.953v-2.234Zm-1.973.582-2.531-4.64-1.961 1.07 2.531 4.64 1.961-1.07Zm-3.808-6.769-6.75-11.813-1.939 1.108 6.75 11.813 1.939-1.108Zm-8.689-11.813-6.75 11.813 1.939 1.108 6.75-11.813-1.939-1.107Zm-5.78 13.484h13.5v-2.234h-13.5v2.234Zm48.478-14.617h1.117v-1.117h-1.117v1.117Zm-.053 13.395-1.116-.04v.01l1.116.03Zm-.303 2.65-1.09-.245-.002.011 1.092.233Zm-2.386 3.493.539.978.009-.005-.548-.973Zm-2.624.844-.191-1.1-.01.002.201 1.098Zm-13.75 0 .199-1.099-.007-.001-.192 1.1Zm-2.611-.844-.548.973.009.005.539-.978Zm-1.595-1.45-.942.6.007.01.935-.61Zm-.817-2.044-1.092.234.002.011 1.09-.245Zm-.33-16.044v-1.117h-1.116v1.117h1.116Zm2.531 0h1.117v-1.117h-1.117v1.117Zm.027 13.395-1.117.021.001.011 1.116-.032Zm.804 3.796-.916.64.005.006.005.007.906-.653Zm3.059 1.28-.103 1.111.014.001.089-1.113Zm11.614 0 .089 1.112h.012l-.101-1.113Zm1.899-.41-.418-1.035-.006.003.424 1.032Zm1.753-2.372-1.092-.231-.002.007-.001.008 1.095.216Zm.224-2.294 1.117.021-1.117-.021Zm.027-3.27h1.116v-.002l-1.116.002Zm-.013-10.125v-1.117h-1.119l.002 1.119 1.117-.002Zm1.427 0v10.125h2.234V15.75h-2.234Zm0 10.125a90.18 90.18 0 0 1-.052 3.23l2.232.08a92.6 92.6 0 0 0 .054-3.31h-2.234Zm-.052 3.24a12.81 12.81 0 0 1-.276 2.435l2.178.49c.195-.867.303-1.825.33-2.866l-2.232-.06Zm-.279 2.446c-.144.673-.367 1.226-.654 1.677l1.884 1.2c.451-.71.764-1.519.954-2.41l-2.184-.467Zm-.654 1.677c-.257.405-.64.768-1.189 1.078l1.097 1.945c.822-.464 1.495-1.068 1.976-1.824l-1.884-1.199Zm-1.179 1.072c-.545.3-1.291.55-2.276.722l.382 2.2c1.143-.198 2.145-.51 2.972-.966l-1.078-1.956Zm-2.286.723c-.966.178-2.195.272-3.701.272v2.233c1.587 0 2.96-.098 4.104-.308l-.403-2.197Zm-3.701.272h-5.933v2.233h5.933v-2.233Zm-5.933 0c-1.506 0-2.739-.094-3.716-.272l-.399 2.197c1.151.21 2.527.309 4.115.309v-2.234Zm-3.723-.273c-.975-.17-1.718-.42-2.264-.722l-1.078 1.956c.825.455 1.823.767 2.957.966l.385-2.2Zm-2.254-.716c-.551-.311-.941-.677-1.208-1.088l-1.871 1.22c.488.75 1.162 1.35 1.982 1.813l1.097-1.946Zm-1.202-1.078c-.289-.454-.518-1.011-.67-1.688l-2.179.49c.2.887.516 1.692.965 2.397l1.884-1.199Zm-.667-1.677a13.52 13.52 0 0 1-.266-2.446l-2.232.06c.027 1.037.13 1.99.314 2.853l2.184-.467Zm-.266-2.446c-.026-.973-.039-2.053-.039-3.24h-2.233c0 1.203.013 2.303.04 3.3l2.232-.06Zm-.039-3.24V15.75h-2.233v10.125h2.233Zm-1.117-9.008h2.531v-2.234h-2.531v2.234Zm1.415-1.117v10.125h2.233V15.75h-2.233Zm0 10.125c0 1.27.009 2.368.026 3.291l2.233-.043a175.98 175.98 0 0 1-.026-3.248h-2.233Zm.027 3.302c.027.943.106 1.774.244 2.477l2.191-.431c-.107-.545-.178-1.244-.203-2.111l-2.232.065Zm.244 2.477c.143.722.381 1.383.76 1.926l1.832-1.277c-.148-.213-.297-.554-.401-1.08l-2.191.431Zm.77 1.94c.415.575.984.985 1.648 1.253l.836-2.071c-.337-.136-.542-.307-.672-.488l-1.812 1.306Zm1.648 1.253c.635.256 1.383.409 2.214.485l.205-2.224c-.698-.064-1.216-.184-1.583-.332l-.836 2.071Zm2.228.486a37.9 37.9 0 0 0 2.936.096v-2.233c-1.107 0-2.025-.03-2.759-.089l-.177 2.226Zm2.936.096h5.933v-2.233h-5.933v2.233Zm5.933 0c1.134 0 2.11-.031 2.923-.096l-.177-2.226c-.735.059-1.648.089-2.746.089v2.233Zm2.935-.097c.839-.076 1.591-.229 2.222-.488l-.848-2.065c-.354.145-.867.265-1.576.33l.202 2.223Zm2.216-.485c.664-.268 1.233-.678 1.648-1.253l-1.812-1.306c-.13.181-.335.352-.672.488l.836 2.071Zm1.648-1.253c.394-.546.639-1.212.783-1.94l-2.191-.431c-.103.52-.253.856-.404 1.065l1.812 1.306Zm.78-1.925c.151-.715.229-1.554.248-2.503l-2.233-.043c-.017.861-.088 1.551-.2 2.085l2.185.461Zm.248-2.503c.017-.923.026-2.02.026-3.291h-2.233c0 1.261-.009 2.343-.026 3.248l2.233.043Zm.026-3.293-.013-10.125-2.233.004.013 10.124 2.233-.003Zm-1.129-9.006h2.544v-2.234h-2.544v2.234Zm29.928-1.117h1.117v-1.117h-1.117v1.117Zm0 2.11v1.116h1.117v-1.117h-1.117Zm-10.125 0v-1.117h-1.116v1.116h1.116Zm0 18.14v1.117h1.117V36h-1.117Zm-2.531 0h-1.117v1.117h1.117V36Zm0-18.14h1.117v-1.117H217.8v1.116Zm-10.125 0h-1.117v1.116h1.117v-1.117Zm0-2.11v-1.117h-1.117v1.117h1.117Zm21.665 0v2.11h2.233v-2.11h-2.233Zm1.116.993h-10.125v2.233h10.125v-2.233Zm-11.241 1.116V36h2.233V17.86h-2.233Zm1.116 17.024H217.8v2.234h2.531v-2.234ZM218.917 36V17.86h-2.234V36h2.234ZM217.8 16.743h-10.125v2.233H217.8v-2.233Zm-9.008 1.116V15.75h-2.234v2.11h2.234Zm-1.117-.992h22.781v-2.234h-22.781v2.234Zm48.162-1.249-.201 1.098.01.002.191-1.1Zm2.623.857-.548.973.009.005.539-.978Zm2.387 3.48-1.092.234.002.011 1.09-.244Zm.303 2.65-1.116.03v.01l1.116-.04Zm0 6.54-1.116-.04v.01l1.116.03Zm-.303 2.65-1.09-.245-.002.011 1.092.233Zm-2.387 3.493.54.978.009-.005-.549-.973Zm-2.623.844-.191-1.1-.01.002.201 1.098Zm-15.438 0 .2-1.099-.008-.001-.192 1.1Zm-2.61-.844-.549.973.009.005.54-.978Zm-1.596-1.45-.942.6.007.01.935-.61Zm-.817-2.044-1.092.234.002.011 1.09-.245Zm0-11.838-1.09-.245-.002.011 1.092.234Zm.817-2.044-.935-.61-.007.01.942.6Zm1.596-1.437.539.978.009-.005-.548-.973Zm2.61-.857.192 1.1.008-.001-.2-1.099Zm14.357 18.602.089 1.113h.012l-.101-1.113Zm3.876-5.075-1.116-.033-.001.01 1.117.023Zm0-6.526-1.117.021.001.011 1.116-.032Zm-.211-2.308-1.096.216 1.096-.216Zm-1.754-2.372-.424 1.032.007.003.417-1.035Zm-1.898-.396-.102 1.112.013.001.089-1.113Zm-13.302 0 .089 1.113.012-.001-.101-1.112Zm-3.863 5.076 1.116.021-1.116-.021Zm0 6.526-1.116.021v.011l1.116-.032Zm.804 3.796-.916.64.005.006.005.007.906-.653Zm3.059 1.28-.102 1.111.013.001.089-1.113Zm10.468-17.776c1.506 0 2.734.094 3.701.271l.402-2.196c-1.143-.21-2.516-.309-4.103-.309v2.234Zm3.711.273c.981.17 1.724.424 2.266.73l1.097-1.946c-.829-.467-1.835-.785-2.981-.984l-.382 2.2Zm2.275.735c.545.3.924.657 1.179 1.059l1.885-1.2c-.483-.758-1.159-1.36-1.985-1.815l-1.079 1.956Zm1.179 1.059c.288.45.511 1.004.655 1.677l2.184-.467c-.191-.891-.503-1.7-.954-2.41l-1.885 1.2Zm.657 1.688c.157.698.252 1.508.277 2.435l2.232-.06c-.028-1.04-.135-1.998-.33-2.864l-2.179.49Zm.277 2.445c.035.969.052 2.045.052 3.23h2.233c0-1.206-.017-2.31-.053-3.31l-2.232.08Zm.052 3.23a90.18 90.18 0 0 1-.052 3.23l2.232.08c.036-1 .053-2.104.053-3.31h-2.233Zm-.052 3.24c-.025.927-.12 1.737-.277 2.435l2.179.49c.195-.867.302-1.825.33-2.866l-2.232-.06Zm-.279 2.446c-.144.673-.367 1.226-.655 1.677l1.885 1.2c.451-.71.763-1.519.954-2.41l-2.184-.467Zm-.655 1.677c-.257.405-.639.768-1.188 1.078l1.097 1.945c.822-.464 1.494-1.068 1.976-1.824l-1.885-1.199Zm-1.179 1.072c-.544.3-1.291.55-2.275.722l.382 2.2c1.143-.198 2.145-.51 2.972-.966l-1.079-1.956Zm-2.285.723c-.967.178-2.195.272-3.701.272v2.233c1.587 0 2.96-.098 4.103-.308l-.402-2.197Zm-3.701.272h-7.621v2.233h7.621v-2.233Zm-7.621 0c-1.505 0-2.739-.094-3.715-.272l-.4 2.197c1.151.21 2.528.309 4.115.309v-2.234Zm-3.723-.273c-.974-.17-1.717-.42-2.263-.722l-1.079 1.956c.826.455 1.823.767 2.957.966l.385-2.2Zm-2.254-.716c-.551-.311-.941-.677-1.208-1.088l-1.871 1.22c.488.75 1.162 1.35 1.982 1.813l1.097-1.946Zm-1.202-1.078c-.289-.454-.517-1.011-.67-1.688l-2.179.49c.2.887.516 1.692.965 2.397l1.884-1.199Zm-.667-1.677a13.52 13.52 0 0 1-.266-2.446l-2.232.06c.027 1.037.13 1.99.314 2.853l2.184-.467Zm-.266-2.446c-.026-.973-.039-2.053-.039-3.24h-2.233c0 1.203.013 2.303.04 3.3l2.232-.06Zm-.039-3.24c0-1.187.013-2.267.039-3.24l-2.232-.06c-.027.997-.04 2.097-.04 3.3h2.233Zm.039-3.24a13.52 13.52 0 0 1 .266-2.446l-2.184-.467a15.678 15.678 0 0 0-.314 2.854l2.232.06Zm.263-2.435c.153-.677.381-1.234.67-1.688l-1.884-1.2c-.449.706-.765 1.511-.965 2.399l2.179.49Zm.664-1.678c.265-.408.652-.768 1.199-1.069l-1.079-1.956c-.824.455-1.501 1.053-1.991 1.806l1.871 1.219Zm1.208-1.074c.543-.307 1.283-.56 2.254-.73l-.385-2.2c-1.137.2-2.138.518-2.966.984l1.097 1.946Zm2.262-.731c.976-.178 2.21-.272 3.715-.272V14.21c-1.587 0-2.964.1-4.115.309l.4 2.197Zm3.715-.272h7.621V14.21h-7.621v2.234Zm7.621 18.984a37.11 37.11 0 0 0 2.91-.096l-.179-2.226a35.01 35.01 0 0 1-2.731.089v2.233Zm2.922-.097c.839-.076 1.592-.228 2.228-.485l-.835-2.071c-.366.148-.887.268-1.595.332l.202 2.224Zm2.228-.485c.665-.268 1.234-.678 1.648-1.253l-1.811-1.306c-.131.181-.335.352-.672.488l.835 2.071Zm1.648-1.253c.395-.546.64-1.212.783-1.94l-2.191-.431c-.102.52-.252.856-.403 1.065l1.811 1.306Zm.783-1.94c.14-.708.214-1.542.232-2.488l-2.233-.043c-.016.865-.083 1.56-.19 2.1l2.191.431Zm.232-2.477c.027-.928.04-2.03.04-3.302h-2.233c0 1.259-.013 2.337-.039 3.237l2.232.065Zm.04-3.302c0-1.273-.013-2.37-.04-3.289l-2.232.065c.026.891.039 1.965.039 3.224h2.233Zm-.04-3.278c-.018-.954-.092-1.792-.232-2.502l-2.191.433c.107.538.174 1.238.19 2.112l2.233-.043Zm-.232-2.502c-.143-.727-.388-1.393-.783-1.94l-1.811 1.307c.151.209.301.545.403 1.066l2.191-.432Zm-.783-1.94c-.414-.574-.983-.984-1.648-1.252l-.835 2.071c.337.136.541.306.672.488l1.811-1.306Zm-1.641-1.25c-.636-.26-1.393-.408-2.234-.475l-.178 2.226c.706.056 1.215.172 1.563.315l.849-2.065Zm-2.221-.474c-.81-.075-1.791-.11-2.936-.11v2.233c1.105 0 2.013.035 2.732.1l.204-2.223Zm-2.936-.11h-7.621v2.233h7.621v-2.233Zm-7.621 0c-1.145 0-2.13.035-2.948.11l.202 2.224a31.29 31.29 0 0 1 2.746-.1V16.32Zm-2.937.109c-.834.067-1.587.215-2.226.473l.835 2.071c.362-.146.875-.262 1.57-.318l-.179-2.226Zm-2.226.473c-.665.268-1.234.678-1.649 1.253l1.812 1.306c.131-.181.335-.352.672-.488l-.835-2.071Zm-1.649 1.253c-.394.546-.639 1.212-.783 1.94l2.191.431c.103-.52.253-.856.404-1.065l-1.812-1.306Zm-.783 1.94c-.139.709-.213 1.547-.231 2.501l2.232.043c.017-.874.084-1.574.19-2.113l-2.191-.431Zm-.231 2.501c-.018.915-.027 2.008-.027 3.278h2.233c0-1.261.009-2.339.026-3.235l-2.232-.043Zm-.027 3.278c0 1.27.009 2.368.027 3.291l2.232-.043a175.98 175.98 0 0 1-.026-3.248h-2.233Zm.027 3.302c.027.943.106 1.774.245 2.477l2.191-.431c-.108-.545-.179-1.244-.204-2.111l-2.232.065Zm.245 2.477c.142.722.38 1.383.759 1.926l1.832-1.277c-.148-.213-.297-.554-.4-1.08l-2.191.431Zm.769 1.94c.415.575.984.985 1.649 1.253l.835-2.071c-.337-.136-.541-.307-.672-.488l-1.812 1.306Zm1.649 1.253c.634.256 1.382.409 2.214.485l.204-2.224c-.698-.064-1.215-.184-1.583-.332l-.835 2.071Zm2.227.486a37.9 37.9 0 0 0 2.936.096v-2.233c-1.107 0-2.025-.03-2.759-.089l-.177 2.226Zm2.936.096h7.621v-2.233h-7.621v2.233Z" fill="#BBB96C"/></svg>